# This file uses centimeters as units for non-parametric coordinates.

mtllib Duckweed.mtl
g default
v -1.262572 0.104800 1.262572
v 0.000000 0.104800 1.262572
v 1.262572 0.104800 1.262572
v -1.262572 0.104800 0.000000
v 0.000000 0.104800 0.000000
v 1.262572 0.104800 0.000000
v -1.262572 0.104800 -1.262572
v 0.000000 0.104800 -1.262572
v 1.262572 0.104800 -1.262572
vt 0.031746 0.031746
vt 0.500000 0.031746
vt 0.968254 0.031746
vt 0.031746 0.500000
vt 0.500000 0.500000
vt 0.968254 0.500000
vt 0.031746 0.968254
vt 0.500000 0.968254
vt 0.968254 0.968254
vn 0.000000 1.000000 0.000000
vn 0.000000 1.000000 0.000000
vn 0.000000 1.000000 0.000000
vn 0.000000 1.000000 0.000000
vn 0.000000 1.000000 0.000000
vn 0.000000 1.000000 0.000000
vn 0.000000 1.000000 0.000000
vn 0.000000 1.000000 0.000000
vn 0.000000 1.000000 0.000000
s 1
g Duckweed
usemtl initialShadingGroup
f 1/1/1 2/2/2 5/5/3 4/4/4
f 2/2/2 3/3/5 6/6/6 5/5/3
f 4/4/4 5/5/3 8/8/7 7/7/8
f 5/5/3 6/6/6 9/9/9 8/8/7
